<svg width="41" height="41" viewBox="0 0 41 41" fill="none" xmlns="http://www.w3.org/2000/svg">
<rect x="1" y="1" width="39" height="39" rx="12" fill="#21222A" stroke="#4DFFF4" stroke-width="2"/>
<path fill-rule="evenodd" clip-rule="evenodd" d="M31 20C31 25.5228 26.5228 30 21 30C15.4772 30 11 25.5228 11 20C11 14.4772 15.4772 10 21 10C26.5228 10 31 14.4772 31 20ZM20 16C20 15.4477 20.4477 15 21 15C21.5523 15 22 15.4477 22 16V19H25C25.5523 19 26 19.4477 26 20C26 20.5523 25.5523 21 25 21H22V24C22 24.5523 21.5523 25 21 25C20.4477 25 20 24.5523 20 24V21H17C16.4477 21 16 20.5523 16 20C16 19.4477 16.4477 19 17 19H20V16Z" fill="#4DFFF4"/>
</svg>
