<svg width="18" height="20" viewBox="0 0 18 20" fill="none" xmlns="http://www.w3.org/2000/svg">
<path d="M6 1C6 0.447715 6.44772 0 7 0H11C11.5523 0 12 0.447715 12 1V2H17C17.5523 2 18 2.44772 18 3C18 3.55228 17.5523 4 17 4H1C0.447716 4 0 3.55228 0 3C0 2.44772 0.447715 2 1 2H6V1Z" fill="white"/>
<path fill-rule="evenodd" clip-rule="evenodd" d="M15 6H3C2.44772 6 2 6.44772 2 7V17C2 18.6569 3.34315 20 5 20H13C14.6569 20 16 18.6569 16 17V7C16 6.44772 15.5523 6 15 6ZM7 8C6.44772 8 6 8.44772 6 9V15C6 15.5523 6.44772 16 7 16C7.55228 16 8 15.5523 8 15V9C8 8.44772 7.55228 8 7 8ZM10 9C10 8.44772 10.4477 8 11 8C11.5523 8 12 8.44772 12 9V15C12 15.5523 11.5523 16 11 16C10.4477 16 10 15.5523 10 15V9Z" fill="white"/>
</svg>
